<svg width="96" height="96" viewBox="0 0 96 96" fill="none" xmlns="http://www.w3.org/2000/svg">
<g clip-path="url(#clip0_742_1084)">
<path d="M51.6338 72.2333C51.6645 72.2847 51.6987 72.3342 51.7363 72.3815C51.8017 72.464 51.9145 72.4897 52.0084 72.4463C52.9805 73.8237 53.6481 75.3966 53.9549 77.0338C54.2739 78.7365 54.1925 80.4537 53.72 82.0313C53.718 82.0382 53.7162 82.0452 53.7148 82.0522L49.0643 84.7153L49.0629 84.7161C48.7454 84.9008 48.5787 85.1832 48.5375 85.4876C48.4974 85.7844 48.5772 86.0904 48.7254 86.3453C48.8737 86.6002 49.101 86.8219 49.3793 86.9381C49.6638 87.0568 49.9937 87.061 50.3171 86.8876L50.3171 86.8877L50.3226 86.8845L81.608 68.9692L81.6093 68.9684C81.8797 68.8111 82.0645 68.5431 82.1291 68.2308C82.1935 67.9196 82.1343 67.5883 81.9709 67.3074C81.8075 67.0265 81.5488 66.8113 81.2464 66.7135C80.9431 66.6154 80.6189 66.6435 80.3486 66.8006L80.3496 66.8L80.462 66.9964L80.3482 66.8008L51.6338 72.2333ZM51.6338 72.2333C44.5347 76.5138 37.3406 80.6367 30.0556 84.5994C29.7858 84.7551 29.4627 84.7827 29.1604 84.6849L29.2301 84.4696L51.6338 72.2333ZM75.9947 69.2938C75.9891 69.2919 75.9834 69.29 75.9777 69.2881C75.9691 69.2854 75.9604 69.2831 75.9517 69.2814C74.2432 68.9455 72.6014 68.1548 71.187 66.9834C69.7755 65.8144 68.6397 64.3071 67.8902 62.6075M75.9947 69.2938L2.21423 34.3612M75.9947 69.2938L75.9715 69.3071L75.9434 69.3232L75.9007 69.3477L75.9289 69.397L75.9376 69.4121L76.0131 69.544M75.9947 69.2938C76.0326 69.3067 76.0698 69.3214 76.1061 69.3378L76.0131 69.544M67.8902 62.6075C67.8409 62.4564 67.7655 62.3155 67.669 62.1917M67.8902 62.6075C67.8915 62.6116 67.8929 62.6157 67.8942 62.6198L67.6784 62.6879M67.8902 62.6075C67.8886 62.6039 67.8871 62.6004 67.8855 62.5968L67.6784 62.6879M67.669 62.1917C74.4497 57.7843 81.137 53.2289 87.7269 48.528M67.669 62.1917C67.6219 62.1311 67.5697 62.0747 67.5131 62.0231L76.0131 69.544M67.669 62.1917C67.6055 62.2329 67.542 62.2742 67.4784 62.3155C67.5668 62.4251 67.6353 62.5517 67.6784 62.6879M87.7269 48.528C88.2703 48.2052 88.3189 47.6036 88.1543 47.1336C88.0052 46.708 87.6485 46.2885 87.1895 46.199C77.6579 31.5834 68.6511 16.6471 60.1692 1.38973L60.167 1.38591C60.0036 1.10501 59.7449 0.889771 59.4425 0.791939C59.1391 0.693782 58.8147 0.721997 58.5444 0.879286C58.422 0.950468 58.3168 1.04466 58.2323 1.15571C58.2323 1.15575 58.2322 1.15579 58.2322 1.15583C58.2312 1.15643 58.2302 1.15703 58.2293 1.15763L2.58786 34.0031C2.58764 34.0032 2.58742 34.0034 2.5872 34.0035L2.58662 34.0038L2.70164 34.1987M87.7269 48.528C87.7238 48.5298 87.7206 48.5317 87.7174 48.5336L87.6036 48.338L87.735 48.5222C87.7323 48.5241 87.7296 48.526 87.7269 48.528ZM2.70164 34.1987C2.54 34.2927 2.43048 34.4174 2.36459 34.5581M2.70164 34.1987L58.3498 1.34913L2.70164 34.1987ZM2.36459 34.5581L2.32319 34.3357C2.28653 34.3425 2.25016 34.351 2.21423 34.3612M2.36459 34.5581L2.15967 34.4622C2.17587 34.4276 2.19405 34.3939 2.21423 34.3612M2.36459 34.5581C1.77818 34.6673 1.30177 35.302 1.77299 35.9751M2.21423 34.3612C1.90175 34.4494 1.6225 34.6605 1.47147 34.9507C1.29696 35.2859 1.30652 35.7023 1.58652 36.1033M1.77299 35.9751L1.58552 36.1018C1.58585 36.1023 1.58619 36.1028 1.58652 36.1033M1.77299 35.9751L1.58762 36.1049C1.58726 36.1044 1.58689 36.1038 1.58652 36.1033M1.77299 35.9751L1.58652 36.1033M67.6784 62.6879C68.4418 64.4237 69.6007 65.9635 71.0427 67.1577C72.4846 68.3518 74.1606 69.1599 75.908 69.5034C75.9437 69.515 75.9788 69.5286 76.0131 69.544M49.1767 84.9117C48.1571 85.5049 49.1699 87.2458 50.2102 86.6882L81.4955 68.7729L49.1767 84.9117ZM56.371 80.5312C56.4764 79.2151 56.3824 77.8661 56.0888 76.5339C55.6543 74.5626 54.7954 72.6856 53.5832 71.0525C57.7178 68.5365 61.8198 65.9669 65.8885 63.3442C66.7482 65.3653 68.0504 67.1788 69.6811 68.6224C70.7487 69.5677 71.9352 70.3348 73.193 70.8982L56.371 80.5312ZM79.8501 40.8422L79.8474 40.8436C61.2106 50.3348 43.1269 60.8551 25.6644 72.3648C25.5251 72.4468 25.4167 72.5486 25.3358 72.6626C19.1606 59.9604 12.1082 47.6832 4.2392 35.9403L58.8337 3.71274C65.8684 16.353 73.288 28.78 81.0926 40.9937C80.7665 40.7315 80.3194 40.6112 79.8501 40.8422ZM81.6253 42.2526C81.6478 42.0962 81.6364 41.9373 81.5987 41.7847C82.7771 43.6235 83.9643 45.4575 85.1602 47.2867C67.3436 59.9217 48.8194 71.4946 29.6641 81.9576C28.5799 79.5238 27.4641 77.1042 26.3168 74.6996C26.5196 74.714 26.7339 74.6633 26.9432 74.5215C44.3928 63.0201 62.4631 52.5075 81.0862 43.0233L81.0864 43.0236L81.0973 43.0172C81.4133 42.8334 81.5819 42.5547 81.6253 42.2526Z" fill="#272727" stroke="#272727" stroke-width="0.452541" stroke-linejoin="round"/>
</g>
<defs>
<clipPath id="clip0_742_1084">
<rect width="70" height="70" fill="white" transform="translate(0 35.2) rotate(-30.1892)"/>
</clipPath>
</defs>
</svg>
